/usr/bin/ffmpeg -hide_banner -y -y -r 50 -start_number 0 -start_number_range 1 -i /home/davis/Dev/XCursorMorph/assets/gif/fotograma%04d.png -i /home/davis/Dev/XCursorMorph/assets/gif/KritaTempPalettegen_%06d.png -lavfi [0:v][1:v]paletteuse=dither=sierra2_4a:diff_mode=none -f gif -loop 0 -gifflags +transdiff /home/davis/Dev/XCursorMorph/assets/gif/scan-white.gif
=====================================================
Input #0, image2, from '/home/davis/Dev/XCursorMorph/assets/gif/fotograma%04d.png':
  Duration: 00:00:02.04, start: 0.000000, bitrate: N/A
  Stream #0:0: Video: png, rgba(pc, gbr/unknown/unknown), 36x36 [SAR 3937:3937 DAR 1:1], 25 fps, 25 tbr, 25 tbn
Input #1, image2, from '/home/davis/Dev/XCursorMorph/assets/gif/KritaTempPalettegen_%06d.png':
  Duration: 00:00:00.04, start: 0.000000, bitrate: N/A
  Stream #1:0: Video: png, rgba(pc, gbr/unknown/unknown), 16x16 [SAR 1:1 DAR 1:1], 25 fps, 25 tbr, 25 tbn
Stream mapping:
  Stream #0:0 (png) -> paletteuse
  Stream #1:0 (png) -> paletteuse
  paletteuse:default -> Stream #0:0 (gif)
Press [q] to stop, [?] for help
Output #0, gif, to '/home/davis/Dev/XCursorMorph/assets/gif/scan-white.gif':
  Metadata:
    encoder         : Lavf61.7.100
  Stream #0:0: Video: gif, pal8(pc, gbr/unknown/unknown, progressive), 36x36 [SAR 1:1 DAR 1:1], q=2-31, 200 kb/s, 50 fps, 100 tbn
      Metadata:
        encoder         : Lavc61.19.100 gif
[out#0/gif @ 0x60e896bf1f00] video:8KiB audio:0KiB subtitle:0KiB other streams:0KiB global headers:0KiB muxing overhead: 0.254162%
frame=   51 fps=0.0 q=-0.0 Lsize=       8KiB time=00:00:01.02 bitrate=  61.9kbits/s speed= 117x    
